<svg id="Layer_1" data-name="Layer 1" xmlns="http://www.w3.org/2000/svg" viewBox="0 0 478.4 383.59"><defs><style>.cls-1{fill:#f37e27;}.cls-2{fill:#f9b27c;}.cls-3{fill:#fbddc4;}.cls-4{fill:#fcd9bb;}.cls-5{fill:#c9c8c7;}.cls-6{fill:#fac499;}.cls-7{fill:#eceae7;}.cls-8{fill:#fcd6b8;}.cls-9{fill:#fac69e;}.cls-10{fill:#fbcda7;}.cls-11{fill:#f3a970;}.cls-12{fill:#fefefe;}.cls-13{fill:#f37d24;}.cls-14{fill:#fdf8f4;}.cls-15{fill:#f7a466;}.cls-16{fill:#fbd1ae;}</style></defs><title>pni</title><path d="M300.58,358h4.5v25.23h-4.5Z" transform="translate(-5.43)"/><path d="M318.4,363.58c.18,2.38.26,4.32.26,8v11.66h-4.29V358H320l6.4,12.24c1.16,2.2,2.38,4.68,3.32,6.95h.18c-.18-3.06-.18-6.12-.18-8.57V358H334v25.23h-5.5l-6.7-12.7c-1.15-2.23-2.16-4.5-3.17-6.95Z" transform="translate(-5.43)"/><path d="M353.75,376.61c0-4.64-11.77-3.81-11.77-11.77,0-4.07,3.53-7.2,8.5-7.2a10,10,0,0,1,7.2,2.67l-2.77,3.38a6.54,6.54,0,0,0-4.79-2.12c-2.27,0-3.53,1.26-3.53,2.91,0,4.75,11.74,3.89,11.74,11.84,0,3.78-3.1,7.27-9.11,7.27a12.14,12.14,0,0,1-8.42-2.95l2.59-3.7a9.3,9.3,0,0,0,6.37,2.8C352.42,379.74,353.75,378.34,353.75,376.61Z" transform="translate(-5.43)"/><path d="M368.37,361.78h-6.44V358h17.38v3.78h-6.4v21.45h-4.54Z" transform="translate(-5.43)"/><path d="M385.69,358h4.5v25.23h-4.5Z" transform="translate(-5.43)"/><path d="M403,361.78h-6.45V358h17.39v3.78H407.5v21.45H403Z" transform="translate(-5.43)"/><path d="M434.29,374.34V358h4.49v15.73c0,7.09-4.28,9.86-9.86,9.86-6.23,0-9.07-3.67-9.07-9V358h4.5v15.8c0,4,1.69,5.94,5.15,5.94C432.52,379.74,434.29,378.23,434.29,374.34Z" transform="translate(-5.43)"/><path d="M451.13,361.78h-6.44V358h17.39v3.78h-6.41v21.45h-4.54Z" transform="translate(-5.43)"/><path d="M468.13,383.23V358h14.36v3.78h-9.87v6.77h8.54v3.78h-8.54v7.13H483v3.77Z" transform="translate(-5.43)"/><path d="M22.13,221.6c0,4.86-2.67,8.5-9.43,8.5H9.93v9.36H5.43V214.22h8.1C18.64,214.22,22.13,216.24,22.13,221.6Zm-12.2-3.52v8.27h2.59c3.85,0,4.93-1.69,4.93-4.14,0-2.91-1.51-4.13-4.72-4.13Z" transform="translate(-5.43)"/><path d="M36.64,214.22c5.47,0,8.64,2.09,8.64,7.31,0,4.28-2.49,6.48-5.48,6.95v.14c1.23.58,2.06,1.48,3.24,3.53l4.14,7.31H41.82l-4.32-8.17a3,3,0,0,0-2.92-1.62h-1v9.79H29.15V214.22Zm-3,11.78h2.52c3.13,0,4.58-1.3,4.58-4.07S39.05,218,36.1,218H33.61Z" transform="translate(-5.43)"/><path d="M54,214.22h4.5v25.24H54Z" transform="translate(-5.43)"/><path d="M71.81,219.8c.18,2.38.25,4.32.25,8v11.67H67.78V214.22h5.61l6.41,12.24c1.15,2.2,2.38,4.68,3.31,6.95h.18c-.18-3.06-.18-6.12-.18-8.57V214.22h4.25v25.24H81.85l-6.69-12.71C74,224.52,73,222.25,72,219.8Z" transform="translate(-5.43)"/><path d="M105.9,213.9c4.54,0,6.69,1.87,7.41,2.59l-2.91,3.31a6.13,6.13,0,0,0-4.86-2.05c-3.78,0-5.87,2.81-5.87,9,0,5.83,2.09,9.14,6.27,9.14a6,6,0,0,0,4.68-1.9l2.48,3.2c-1.12,1.22-3.53,2.63-7.6,2.63-7.45,0-10.43-5.11-10.43-12.75C95.07,219,98.77,213.9,105.9,213.9Z" transform="translate(-5.43)"/><path d="M120,239.46V214.22h14.36V218h-9.86v6.77H133v3.78h-8.53v7.13h10.33v3.78Z" transform="translate(-5.43)"/><path d="M146,218H139.6v-3.78H157V218h-6.4v21.46H146Z" transform="translate(-5.43)"/><path d="M171.38,239.82c-6.19,0-10-3.46-10-12.82s4.21-13.14,10.33-13.14,10.08,3.5,10.08,12.85S177.5,239.82,171.38,239.82Zm.29-3.82c3.35,0,5.44-2.19,5.44-9s-2.2-9.29-5.69-9.29c-3.24,0-5.44,2.12-5.44,9S168.18,236,171.67,236Z" transform="translate(-5.43)"/><path d="M193.52,219.8c.18,2.38.26,4.32.26,8v11.67h-4.29V214.22h5.62l6.4,12.24c1.16,2.2,2.38,4.68,3.32,6.95H205c-.18-3.06-.18-6.12-.18-8.57V214.22h4.24v25.24h-5.5l-6.7-12.71c-1.15-2.23-2.16-4.5-3.17-6.95Z" transform="translate(-5.43)"/><path class="cls-1" d="M372.19,192.52c-13.54,9.07-28.11,15.55-44.32,18.15-19.28,3.1-38.11,1.17-56.67-4.54-18-5.53-33.55-15-46.1-29.1C211.31,161.6,207,144,214.7,124.3c8-20.36,29.53-32.51,51.4-29.51,2.31.31,4.62.65,6.92,1,1.78.26,3.77,1.09,4.86-1.12.92-1.86.2-3.55-1.1-5-.62-.71-1.48-1.34-1.12-2.75,2.91-.57,5.54,4,8.56.68,1.16-1.57,3.33-2.58,3.23,0-.18,4.66,1.83,7.79,4.7,10.85.53.56,0,1.23-.36,1.78a11,11,0,0,1-.92,1c-2,1.49-.55,3.68-1.08,5.48-3.57,1.88-6.16,1.17-7-2.31a5.15,5.15,0,0,0-2.69-3.82c-15.87-1.68-30.93.11-43.62,10.88-17.7,15-19.29,40.34-4.11,58,13,15.11,29.73,23.62,48.66,28.27,33.73,8.28,65.57,2.66,95.81-13.75,1.45-.78,2.83-1.68,4.24-2.53,1.51-.25,2.7-3.08,4-1.52,1.62,1.88-1,3-2.14,4.16-2.06,2.06-4.58,3.6-6.86,5.43h0C374.79,190.43,373.56,191.57,372.19,192.52Z" transform="translate(-5.43)"/><path d="M309.15,29.63c-12.48-3.51-24.89-7.3-37.76-9.24C217.47,12.25,167.59,21.48,124,55.83,108.2,68.31,95.27,83.56,87.92,102.77,77.54,129.92,82.27,155,98.51,178.51c.85,1.23,1.68,2.47,2.45,3.74.12.18-.13.58-.29,1.15-2.51-.2-4-2-5.57-3.59C71.51,156.27,66.94,128.5,77.78,97.89c9.72-27.45,28.39-48.2,51.37-65.4a1.68,1.68,0,0,1,2.14-.09c.3,2.77-2,3.63-3.67,4.86C111.52,49.53,98.09,64.2,88.25,81.9c-8.64,15.55-13.31,32.31-12.66,50.22A63.55,63.55,0,0,0,80.08,152c3.1,8.3,8.16,15.47,13,22.75a80.42,80.42,0,0,1-12.33-29.13C74.71,116.45,86,92.71,104.12,71.39c25.07-29.48,58-45.48,95.22-53.57,3.91-.85,7.77-1.86,11.83-1.64a14.54,14.54,0,0,0,5.32-.63,18.48,18.48,0,0,1,4.06-.42c4.48-.15,9,.48,13.43-.52a9.7,9.7,0,0,1,3.44,0c5.36,1.11,10.78.28,16.16.55a13.42,13.42,0,0,1,3.28.37,18,18,0,0,0,6.19.7,15.49,15.49,0,0,1,3.11.4,21.27,21.27,0,0,0,5.39.71,238.57,238.57,0,0,1,32.6,8c1.87.62,3.87,1,5.11,2.75A1.45,1.45,0,0,1,309.15,29.63Z" transform="translate(-5.43)"/><path d="M131.19,32.52l-2,0c9.27-8,20.1-13.47,31.25-18.24,34-14.58,69.51-16.64,105.76-12.12,26.16,3.25,51.13,10.47,74.47,22.73,32.79,17.23,57.58,42.17,70.74,77.28,6.74,18,6.94,36.1-3.23,53.32a3.37,3.37,0,0,1-1-2.16,75.58,75.58,0,0,1,4-13.83c2.94-9.1,1.94-18.23.15-27.35C398.09,67,367,39,325.15,21A230.76,230.76,0,0,0,209.27,4.42c-26.94,3.42-51.77,12.06-74.44,27C133.74,32.11,132.68,33.06,131.19,32.52Z" transform="translate(-5.43)"/><path d="M408,153.46c0,.66.09,1.33.14,2-1.69,2.79-3.15,5.76-6,7.61a1.63,1.63,0,0,1-.44-2.28c9.28-20.66,5.42-40.44-4.54-59.52-13.84-26.54-35.51-45.22-61.27-59.61-8.57-4.79-17.75-8.2-26.74-12,0-.37,0-.75,0-1.12,1.26-1.28,2.73-1.05,4.16-.46,39.59,16.08,72.49,39.83,90.31,80.26,5.32,12,8.9,24.68,5.65,38.26C408.78,148.77,406,150.75,408,153.46Z" transform="translate(-5.43)"/><path class="cls-2" d="M309.19,107.52c1.41,2.55,2.8,5.11,4.25,7.63.61,1.07,1.06,2.8,2.75,2,1.49-.69.68-2.28.64-3.51a1.27,1.27,0,0,1,1.48-.29c2.48,4.8-.7,7.62-3.67,10.52a3.47,3.47,0,0,1-2.95.19c-1-2,1-5.27-2.57-6.25-3.81-3-7.56-2.21-11.47-.07-1.74,1-3.82,4.17-5.68,1.07-1.37-2.3-.37-5.15,2.8-6.23a10.11,10.11,0,0,0,3.38-7.06,9.16,9.16,0,0,1,.3-1.38c.69-2.09.94-4.33,2.18-6.23.86-2.23.62-4.64,1.07-6.94,0-.83,0-1.66,0-2.49,0-1.6.32-3.26,2.21-3.3,2.38,0,1.72,2,1.72,3.35A53.89,53.89,0,0,0,309.19,107.52Z" transform="translate(-5.43)"/><path class="cls-3" d="M300.17,147.51c.57,1.18,4,2.65-.24,3.34-1.32.21-1.81.64-1.54,1.82s1.21,2.4-.25,3-2.18-1.1-3.05-1.94a21.11,21.11,0,0,1-1.67-2.45c-1.71-2.24-3.5-3.64-5.89-.68-.8,1-2,2.36-3.32,1.55-1.72-1-.2-2.43.44-3.34,1.39-2,1.12-3-1.29-3.31-1-.14-2.18-.12-2.46-1.27s.92-1.61,1.79-2c5-2,2.33-3.93-.17-5.57-1.92-1.25-4.27-1.9-5.34-4.22.2-1.38,0-2.86,1-4,2.81.63,4-2,6-3a2.84,2.84,0,0,1,2.36,2.38,4,4,0,0,1-1,2.24c-1.45,1.76-1.85,2.79,1.09,3.64s5.15,3,3.55,6.69c-3.77,4.32-3.44,5,3.29,6.62.81-3.08-4.7-3.45-3-6.93,5.13-.39,9.46-2.93,13.89-5.17.47.13,1.09.62.93.87-1.77,2.7.74,2.08,1.89,2.51.27,3.28-2.52,4-4.44,5.64C301.75,144.9,298.71,144.62,300.17,147.51Z" transform="translate(-5.43)"/><path class="cls-4" d="M278.19,128.5c0,1.42,1.42,3.2-1,4-6.09-3.22-10.44,1.29-15.1,4.06-1-2.08,0-3.21.82-4.07,5.58-6.13,7.11-13.57,7.32-21.52,0-1.81-.85-4.77,1.85-4.89,2.86-.12,2,2.86,2.07,4.65A47.79,47.79,0,0,0,278.19,128.5Z" transform="translate(-5.43)"/><path class="cls-5" d="M328,128.57c1.39,5.07,4.16,6.36,9.26,4.22.88-.37,1.63-1.44,2.65-.74,1.57,1.08,0,2-.37,2.9-.67,1.5,0,2.57,1.18,3.38.9.58,1.75,1.28,1.05,2.36s-1.72.49-2.7.3c-5.12-1-9.85-.94-13.16,4.13-1,1.55-3,1.63-3.31-.4-.5-3.77-2.91-3.33-5.4-3.21-1.81,1-2.87,0-3.45-1.5s.23-2.93,1.68-3.7c1.9-1,4-1.66,5.27-3.59,1.6-1,2,.3,2.41,1.35.62,1.49,0,3.29,1.29,4.91,1.17-3.1-.09-6.32,1.13-9.18A2.1,2.1,0,0,1,328,128.57Z" transform="translate(-5.43)"/><path class="cls-6" d="M328,128.57l-1.6,1a1.63,1.63,0,0,1-.7-1.16c1.08-4.19,4.64-5.63,8.46-7.37-1.91-2.44-3.5-5-3.27-8.2-1.71.2-2.53,1.52-3.87,1.69a11,11,0,0,1-4.46,0,4.18,4.18,0,0,1-2.91-2.32,3,3,0,0,1,.09-2.24l.53-.55c5.47,4.84,8.82,3.46,11.62-4.83a15.58,15.58,0,0,0,.27-2c.45-2.23,1.8-4.83,3.86-4.17,2.47.8.11,2.89-.28,4.51-.65,2.72-1.39,5.37-2.24,8-1.5,4.7,1.07,8,6.29,8.45a29.62,29.62,0,0,1,9.18,2c1.07.46,2.28,1.11,1.78,2.55s-1.69,1.07-2.93,1c-3.64-.3-7.31-.19-10.94-.55C333,124,330.05,125.28,328,128.57Z" transform="translate(-5.43)"/><path class="cls-7" d="M321.31,132.68c.34,3-1.11,4-4,4.06-1.21,0-2.76.59-2.95,2.12-.23,1.89,1.19,2.46,2.79,2.65-3.26,3.39-7.86,1.53-11.67,2.92-2,.74-4.16,1-5.34,3.08-1.21-.06-2.45-.42-2.54-1.74s1.34-1,2.16-1.36c3-1.34,5.73-2.95,7.37-5.94-.36-1.9,1.55-2.37,2.25-3.6a5.36,5.36,0,0,1,1.54-1.18c2.18-.81,3.45-2.67,5-4.26a3.94,3.94,0,0,1,2.07-.84C320.39,128.9,322.39,129.54,321.31,132.68Z" transform="translate(-5.43)"/><path class="cls-4" d="M286.21,127.53a3.45,3.45,0,0,1-2-2,18.62,18.62,0,0,1,2.87-3.29c3.69-2.66,4.85-5.74,2.23-9.77a20.47,20.47,0,0,0,2.9-2.17,7.87,7.87,0,0,1,4.31,1.32,1.76,1.76,0,0,1-.34,1.89,23.81,23.81,0,0,1-2.27,1c-2.28.75-2.14,2.75-1.33,4,1.15,1.78,2.15-.18,3.07-.84,5.95-4.24,10-4.31,14.64-.22a1.87,1.87,0,0,1-1.75.7c-7.37-1.78-12.59,1.88-17.42,6.73C289.78,126.18,288.61,128.06,286.21,127.53Z" transform="translate(-5.43)"/><path class="cls-8" d="M309.19,107.52c-3.51-4.8-3.66-10.42-4-16-.12-1.84.92-5.15-1.07-5.2-2.94-.08-1.49,3.3-1.95,5.19-.32.46-.64.5-1,0,.2-4.45-.61-9,.71-13.34.32-1.06.4-2.51,2-2.43a2.36,2.36,0,0,1,2.23,2.78C305.55,88.35,307.38,97.93,309.19,107.52Z" transform="translate(-5.43)"/><path class="cls-9" d="M290.12,100.46c.79-.85,2.58-1.46.67-2.93A8.82,8.82,0,0,1,287,88.92c.34-2.74-1.39-1.87-2.8-1.37,1.74-3.14,3.45-6.3,5.23-9.42.4-.71,1-1.51,2-1a1.72,1.72,0,0,1,.67,2.19c-.7,2.35-1.49,4.68-2.41,7-2.38,5.84-1.4,8.39,4.52,11.35.95.92,3.44-.18,3.22,2.07-.21,2.1-2.2,2-3.79,2.11A4,4,0,0,1,290.12,100.46Z" transform="translate(-5.43)"/><path class="cls-2" d="M292.22,110.5c0,2.07-.38,3.67-2.93,2-.36-1.72-1.28-3.74-2.94-3.47-2.21.36-.78,2.75-1.12,4.22a26.43,26.43,0,0,0-.24,3c-.1.87-.53,1.75-1.41,1.81-1.43.1-1.39-1.14-1.4-2.09a78.26,78.26,0,0,1,0-8,9.66,9.66,0,0,0-2.08-7.38c2.35,0,2.68,1.72,3.3,3.51,1,3,3.56,3.5,5.75,1.45a1.19,1.19,0,0,1,1.34-.07C291.72,106.92,293.55,108.18,292.22,110.5Z" transform="translate(-5.43)"/><path class="cls-1" d="M376.16,189.49c2.08-3.71,6.74-4.83,8.84-9-1.6-.66-2.48,1.67-3.88.9,1.7-2.88,4.84-3.9,7.38-5.69.7-.5,1.47-1,2.12,0a1.65,1.65,0,0,1-.45,2.22C385.87,182.23,382.05,187.12,376.16,189.49Z" transform="translate(-5.43)"/><path class="cls-8" d="M290.12,100.46c2.12,0,4.27.45,6.39-.33.54-2.11-2-1.36-2.32-2.56,4.29,1,6.35-1.08,6.95-5.12a8.5,8.5,0,0,1,.1,6.1c-.84,1.94-.61,4.24-2,6-2.67-2-6.2-1.23-9-2.73a.93.93,0,0,1,0-1.34Z" transform="translate(-5.43)"/><path class="cls-10" d="M315.17,108.53c-2.11-2.23-3.38-6-1.18-7.28,3.22-1.85,3.49,2.63,4.77,4.58a20.38,20.38,0,0,1,1.49,3.59l-.22.33C318.23,110.06,317.2,107.3,315.17,108.53Z" transform="translate(-5.43)"/><path class="cls-11" d="M315.17,108.53c.23-1.83.12-4.35,2.77-1.41.75.83,1.4,1.75,2.09,2.63,0,.61.07,1.23.1,1.84-.62.71-1,1.67-2,1.94l-1.28.14Q316,111.1,315.17,108.53Z" transform="translate(-5.43)"/><path class="cls-9" d="M301.24,98.55q0-3-.1-6.1a7.57,7.57,0,0,1,0-1c.33,0,.66,0,1,0C301.88,93.85,303,96.38,301.24,98.55Z" transform="translate(-5.43)"/><path class="cls-1" d="M372.19,192.52a4.66,4.66,0,0,1,4-3A4.48,4.48,0,0,1,372.19,192.52Z" transform="translate(-5.43)"/><path class="cls-9" d="M290.13,100.46l0,1c1,1.37,1.26,2.73-.06,4.06l-.92,0C288.3,103.6,287.34,101.68,290.13,100.46Z" transform="translate(-5.43)"/><path d="M408,153.46c-2.84.92-1.76-1.28-1.44-2.11,4.69-12.34,2.33-24.19-1.76-36.17C395.16,87,376.07,66.37,352.28,49.76c-12.4-8.66-26-15.39-40.13-21a10.23,10.23,0,0,0-3-.23,206.67,206.67,0,0,0-33.6-9.09c-1.44-.28-2.87-.65-4.31-1-1.57-1-3.51.15-5.09-.86l-2.92-.13c-1.91-1.13-4.18.23-6.08-.89l-2.89-.14c-5.66-1.19-11.45.36-17.11-.85h-3c-4.65,1.18-9.45-.33-14.1.84l-3.9.18c-1.58,1-3.51-.18-5.09.84-9.71.39-18.91,3.26-28.19,5.76a142.89,142.89,0,0,0-31.47,12.71c-16.26,8.9-31.7,19.07-44,33.47C97,81.51,88.06,94.32,83.61,109.76c-3.15,10.9-4.31,21.82-2,33.38,2.47,12.59,7.56,23.73,14,34.56a64.44,64.44,0,0,1-17.29-27c-9.27-27.29-1.75-52,12.45-75.33C100.7,59,114,45.57,129.51,34.3a12.94,12.94,0,0,0,1.68-1.78c24.94-17.74,52.9-26.93,83.21-30,25.46-2.61,50.5-.3,75.21,5.56,33.78,8,64.7,21.82,89.55,46.92,15.82,16,27.61,34.42,33.06,56.52a71.89,71.89,0,0,1-.07,29Q410.08,147,408,153.46Z" transform="translate(-5.43)"/><path d="M237.19,15.57c5.7.3,11.48-1.06,17.11.85C248.6,16.07,242.81,17.49,237.19,15.57Z" transform="translate(-5.43)"/><path d="M220.08,16.42c4.61-1.82,9.4-.58,14.1-.84C229.57,17.41,224.78,16.12,220.08,16.42Z" transform="translate(-5.43)"/><path d="M257.19,16.56c2,.18,4.23-.63,6.08.89C261.22,17.28,259,18.21,257.19,16.56Z" transform="translate(-5.43)"/><path d="M211.09,17.44c1.52-1.38,3.36-.78,5.09-.84C214.68,18.07,212.82,17.34,211.09,17.44Z" transform="translate(-5.43)"/><path d="M266.19,17.58c1.73.06,3.58-.57,5.09.86C269.55,18.33,267.68,19.07,266.19,17.58Z" transform="translate(-5.43)"/><path d="M412.15,140.48a151.88,151.88,0,0,0,.07-29C414.7,121.15,415.31,130.82,412.15,140.48Z" transform="translate(-5.43)"/><path class="cls-12" d="M286.21,127.53c1.82-1.65,3.72-3.21,5.44-5,5.23-5.33,11.22-7.72,18.62-5.15,3.41,1.57,5.61,3.31.91,6.1a3,3,0,0,1-1.14.87c-5.58.49-10.84,2.24-17,4.26,5,1.24,8.95-.38,12.95-.67,2-.14,4-.93,4.89,1.8a3.84,3.84,0,0,1-.16,1.43c-1.57,1.85-3.19,3.62-5.69,4.23-4.41,3.37-8.91,6.46-14.93,5.14h0c-.09-3.06-1-5.58-4.52-5.93-1.23-.12-2.7.86-3.23-1.08-.43-1.55.74-2.4,1.62-3.39S285.48,128.41,286.21,127.53Z" transform="translate(-5.43)"/><path class="cls-13" d="M310,131.27a2.56,2.56,0,0,1,.24-.69,4.71,4.71,0,0,0,.73-1.05c-.32-2.72-1.25-5.75,3.13-6,2.12-3,5.18-5.64,4-10,.12-1.22.61-2.06,2-1.94l2,2a7,7,0,0,0,5.18.08l4.28-4c.74,4.07-.18,8.57,4.57,10.71,1.54.7.54,2-1,2.07-4.3.17-6.79,2.93-9,6.08a3.11,3.11,0,0,0-.5,1.34c-.35,1.67,1.09,4.26-1.07,4.85-2.56.69-1.87-2.48-2.85-3.77-1.28-1.66-2.56-2.5-4.58-1.46l-1.09,1c-1.71,1.26-3,3-4.92,4l-1.12,1c-2.48,1.19-2.47-.25-1.93-2C308.39,132.52,309.53,132.15,310,131.27Z" transform="translate(-5.43)"/><path class="cls-14" d="M290.11,105.55l.06-4c3,.94,7.48-2.3,9,3a5.14,5.14,0,0,0,0,1,12.72,12.72,0,0,1-3,6c-1.78,1.42-2.9.29-4-1Z" transform="translate(-5.43)"/><path class="cls-11" d="M314.09,123.5c-4.62.79,0,5.46-2.94,7-.45-1.83-1.43-2.9-3.49-2.38a30.78,30.78,0,0,1-4.35.79,1.93,1.93,0,0,1-2.18-1.57c-.27-1.19.58-1.71,1.51-2.16,2.39-1.16,5.1-.81,7.57-1.59a2.87,2.87,0,0,1,1,0Z" transform="translate(-5.43)"/><path class="cls-9" d="M296.19,111.52l3-6c.49,3.23-1.55,5.51-3,8Z" transform="translate(-5.43)"/><path class="cls-15" d="M290.14,140.58c1.18,2.16,4.08,2.69,4.91,5.27.28.88,1.4,1.74.18,2.49-2.48,1.52-4.45-1.11-6.89-1.13-1.54,0-2.18-2.31-2.07-4,.16-2.34,1.79-2.9,3.86-2.64Z" transform="translate(-5.43)"/><path class="cls-11" d="M310,131.27c1.09,1.37-4,2.79,0,4.13,0,1.87-2,1.91-2.87,3.07-2.25-.23-3,2.92-5.57,2.5.08-2.63,3-3.38,3.48-5.53C306.61,133.92,307.86,132.08,310,131.27Z" transform="translate(-5.43)"/><path class="cls-11" d="M317.16,129.46c3.76-1.12,3.76-1.12,7,4.64,1.9-1.48.06-4.26,2-5.6.07.34.15.69.22,1-.07,3.27-.13,6.54-.22,9.81,0,1-.15,2.2-1.24,2.41-1.34.27-2-1-2.39-2-.95-2.25.48-4.93-1.22-7.08C321.14,130.05,319.16,129.74,317.16,129.46Z" transform="translate(-5.43)"/><path class="cls-11" d="M327.31,113.65a3.6,3.6,0,0,1-5.18-.08Z" transform="translate(-5.43)"/><path class="cls-11" d="M311.15,134.43c1.23-1.83,2.59-3.52,4.92-4A6.33,6.33,0,0,1,311.15,134.43Z" transform="translate(-5.43)"/><path class="cls-16" d="M310.21,123.56c-1.87,1.63-4.45.84-6.49,1.93-.83.44-2.18.5-1.75,1.82s1.54.61,2.5.65c2.45.12,6.18-2.84,6.68,2.51a2.59,2.59,0,0,1-.92.11c-.26-2.21-1.55-1.87-3.22-1.58-4.36.76-8.7,1.85-13.19,1.52-1.17-.08-2.61,0-2.9-1.32a2.14,2.14,0,0,1,2-2.37C298.82,126.27,304.1,122.71,310.21,123.56Z" transform="translate(-5.43)"/><path class="cls-1" d="M15.12,270.15c.18,5.4.27,10.44.27,16.74v37.8H8.55V261.6H18.63l21.24,40c2.43,4.59,5,9.54,7.29,14.22h.63c-.18-5.76-.18-11.61-.18-16.92V261.6h6.75v63.09h-9.9L23,284.46c-2.52-4.68-4.86-9.45-7.2-14.31Z" transform="translate(-5.43)"/><path class="cls-1" d="M99.27,320.91c-3.24,2.43-8.37,4.41-15.39,4.41-13.95,0-21.51-7.11-21.51-25.38,0-17.73,9.9-25,20.79-25,11.61,0,17.82,7.56,17.82,19.17a76.16,76.16,0,0,1-.54,8.46H69.3c.63,12.06,5.67,16.65,15.48,16.65,4.86,0,9.27-1.89,11.34-3.69ZM69.39,296.79H94c.09-1.26.09-2.34.09-3,0-8.28-3.6-12.87-11.52-12.87C76.14,281,70,285,69.39,296.79Z" transform="translate(-5.43)"/><path class="cls-1" d="M108.18,275.73h7v32c0,8,3.42,11.88,10.71,11.88,7,0,12.15-4,12.33-11.79V275.73h7v49h-5.49l-1.35-5.13h-.36c-1.35,1.89-5.76,6.12-14,6.12-10.08,0-15.66-5.31-15.93-16.47Z" transform="translate(-5.43)"/><path class="cls-1" d="M179.28,282.66a19.19,19.19,0,0,0-5.49-.72c-4.77,0-9.72,1.89-12.06,6.3v36.45H154.8v-49h5.31l1.53,5.4H162c2.16-3.51,6.66-6.21,12.33-6.21a21.39,21.39,0,0,1,4.95.45Z" transform="translate(-5.43)"/><path class="cls-1" d="M179.28,300.3c0-15.12,5.67-25.47,20.52-25.47s20.07,10.08,20.07,25c0,15.12-5.76,25.65-20.61,25.65S179.28,315.33,179.28,300.3Zm20.52,19.08c9.45,0,12.87-6.21,12.87-19,0-13.14-4-19.53-13.41-19.53-9.27,0-12.78,6.21-12.78,18.9C186.48,312.9,190.44,319.38,199.8,319.38Z" transform="translate(-5.43)"/><path class="cls-1" d="M225.09,288.51c0-7,6-13.59,16.74-13.59,5.85,0,11.34,2.07,14.31,5.22l-4.5,4.86a14.55,14.55,0,0,0-10-4c-6.66,0-9.63,3.33-9.63,7.29,0,11,24.75,6.57,24.75,23.22,0,6.75-5.67,13.95-17.46,13.95-8.1,0-14.22-3.06-17.28-6.21l4.32-5.22a18.52,18.52,0,0,0,13.32,5.4c6.84,0,10.17-3.6,10.17-7.74C249.84,300.66,225.09,305.07,225.09,288.51Z" transform="translate(-5.43)"/><path class="cls-1" d="M281.52,274.92c7.83,0,12.15,3.06,14,5.13l-4.68,5.13a12.55,12.55,0,0,0-9.63-4.05c-7.92,0-13.23,5.22-13.23,18.9,0,14,5,19.26,13.23,19.26,4.5,0,7.56-1.62,9.54-3.87l4.32,4.86c-2,2.25-6.12,5.22-14.49,5.22-12,0-19.8-6.93-19.8-24.57C260.73,282.93,269.55,274.92,281.52,274.92Z" transform="translate(-5.43)"/><path class="cls-1" d="M305.81,256.29a5.09,5.09,0,1,1,0,10.17,5.09,5.09,0,0,1,0-10.17Zm-3.06,19.44h7v49h-7Z" transform="translate(-5.43)"/><path class="cls-1" d="M355.31,320.91c-3.24,2.43-8.37,4.41-15.39,4.41-13.95,0-21.51-7.11-21.51-25.38,0-17.73,9.9-25,20.79-25,11.61,0,17.82,7.56,17.82,19.17a76.16,76.16,0,0,1-.54,8.46H325.34c.63,12.06,5.67,16.65,15.48,16.65,4.86,0,9.27-1.89,11.34-3.69Zm-29.88-24.12H350c.09-1.26.09-2.34.09-3,0-8.28-3.6-12.87-11.52-12.87C332.18,281,326.06,285,325.43,296.79Z" transform="translate(-5.43)"/><path class="cls-1" d="M401.48,324.69h-7V292.56c0-7.47-3.69-11.61-10.53-11.61a13.21,13.21,0,0,0-12.42,8.73v35h-7v-49h5.31l1.44,5.13h.36a18.56,18.56,0,0,1,13.95-6.12c9.81,0,15.66,5.31,15.93,16.2Z" transform="translate(-5.43)"/><path class="cls-1" d="M428.93,274.92c7.83,0,12.15,3.06,13.95,5.13l-4.68,5.13a12.55,12.55,0,0,0-9.63-4.05c-7.92,0-13.23,5.22-13.23,18.9,0,14,5,19.26,13.23,19.26,4.5,0,7.56-1.62,9.54-3.87l4.32,4.86c-2,2.25-6.12,5.22-14.49,5.22-12,0-19.8-6.93-19.8-24.57C408.14,282.93,417,274.92,428.93,274.92Z" transform="translate(-5.43)"/><path class="cls-1" d="M482.12,320.91c-3.24,2.43-8.37,4.41-15.39,4.41-14,0-21.51-7.11-21.51-25.38,0-17.73,9.9-25,20.79-25,11.61,0,17.82,7.56,17.82,19.17a76.16,76.16,0,0,1-.54,8.46H452.15c.63,12.06,5.67,16.65,15.48,16.65,4.86,0,9.27-1.89,11.34-3.69Zm-29.88-24.12h24.57c.09-1.26.09-2.34.09-3,0-8.28-3.6-12.87-11.52-12.87C459,281,452.87,285,452.24,296.79Z" transform="translate(-5.43)"/></svg>